<?xml version="1.0" encoding="UTF-8"?>
<svg xmlns="http://www.w3.org/2000/svg" viewBox="0 0 640 960" preserveAspectRatio="xMidYMid slice">
  <defs>
    <linearGradient id="bgGlow" x1="0%" y1="0%" x2="100%" y2="100%">
      <stop offset="0%" stop-color="#09090f"/>
      <stop offset="100%" stop-color="#050507"/>
    </linearGradient>
  </defs>
  <rect width="640" height="960" fill="url(#bgGlow)"/>
  <g opacity="0.3" fill="none" stroke="#18171f" stroke-width="6" stroke-linejoin="round">
    <path d="M112 120c18-42 60-67 108-70l-8 30c-2 8 3 16 10 19l28 12-6 34c-1 7 3 13 9 16l32 14-28 24c-4 3-6 8-5 14l5 42-44-12c-6-2-13 1-16 7l-18 36-18-46c-2-6-8-10-14-10l-52 2 27-34c4-5 4-13-1-18l-29-32 48-6c6 0 12-4 14-10z"/>
    <path d="M352 224c22-46 62-74 116-82l-10 36c-2 7 2 15 8 19l32 20-8 36c-1 6 2 12 8 15l30 16-26 24c-4 4-6 10-5 16l6 46-48-14c-6-1-12 2-15 7l-20 38-18-48c-3-6-9-10-16-9l-58 5 31-36c4-4 4-12 0-16l-35-36 50-10c6-1 11-5 14-10z"/>
    <path d="M96 428c18-40 54-66 98-74l-8 30c-2 7 3 14 10 17l26 12-6 30c-1 6 2 12 8 14l28 14-24 22c-4 4-6 9-5 15l5 38-40-12c-6-2-12 2-15 7l-16 34-16-44c-2-6-8-9-14-8l-46 4 25-32c3-4 3-11-1-16l-27-30 42-8c6-1 11-5 14-10z"/>
    <path d="M344 612c20-42 58-68 104-76l-9 32c-2 7 3 14 9 18l28 14-7 32c-1 6 2 12 7 15l28 14-24 22c-4 4-6 9-5 15l6 40-44-12c-6-2-12 2-15 8l-18 34-18-44c-2-6-8-10-14-9l-54 5 29-32c4-4 4-11 0-16l-31-32 46-8c6-1 10-5 13-10z"/>
    <path d="M120 760c20-44 60-72 110-78l-10 36c-2 7 3 15 9 19l30 18-8 36c-1 6 3 12 8 15l30 16-26 24c-4 4-6 10-4 16l6 44-48-14c-6-1-12 2-15 8l-20 38-18-48c-3-6-9-10-16-9l-56 5 31-36c4-4 4-12 0-16l-33-36 52-10c6-1 11-5 14-10z"/>
  </g>
</svg>
